<svg width="25" height="24" viewBox="0 0 25 24" fill="none" xmlns="http://www.w3.org/2000/svg">
    <path d="M12.5 4C7.5 4 3.17391 7.33333 1.5 12C3.17391 16.6667 7.5 20 12.5 20C17.5 20 21.8261 16.6667 23.5 12C21.8261 7.33333 17.5 4 12.5 4ZM12.5 17C9.46243 17 7 14.5376 7 11.5C7 8.46243 9.46243 6 12.5 6C15.5376 6 18 8.46243 18 11.5C18 14.5376 15.5376 17 12.5 17ZM12.5 8C10.567 8 9 9.567 9 11.5C9 13.433 10.567 15 12.5 15C14.433 15 16 13.433 16 11.5C16 9.567 14.433 8 12.5 8Z" fill="#666666"/>
</svg>
